<?xml version="1.0" encoding="UTF-8" standalone="no"?>
<!-- Created with Inkscape (http://www.inkscape.org/) -->

<svg
   width="20.0px"
   height="20.0px"
   viewBox="0 0 20.0 20.0"
   version="1.1"
   id="SVGRoot"
   sodipodi:docname="dessin.svg"
   inkscape:version="1.2.2 (1:1.2.2+202212051552+b0a8486541)"
   xmlns:inkscape="http://www.inkscape.org/namespaces/inkscape"
   xmlns:sodipodi="http://sodipodi.sourceforge.net/DTD/sodipodi-0.dtd"
   xmlns="http://www.w3.org/2000/svg"
   xmlns:svg="http://www.w3.org/2000/svg">
  <sodipodi:namedview
     id="namedview242"
     pagecolor="#505050"
     bordercolor="#ffffff"
     borderopacity="1"
     inkscape:showpageshadow="0"
     inkscape:pageopacity="0"
     inkscape:pagecheckerboard="1"
     inkscape:deskcolor="#505050"
     inkscape:document-units="px"
     showgrid="true"
     inkscape:zoom="1.7459909"
     inkscape:cx="303.55256"
     inkscape:cy="2533.232"
     inkscape:window-width="1920"
     inkscape:window-height="1015"
     inkscape:window-x="0"
     inkscape:window-y="0"
     inkscape:window-maximized="1"
     inkscape:current-layer="layer1">
    <inkscape:grid
       type="xygrid"
       id="grid248" />
  </sodipodi:namedview>
  <defs
     id="defs237" />
  <g
     inkscape:label="Calque 1"
     inkscape:groupmode="layer"
     id="layer1">
    <path
       fill="#ffffff"
       fill-opacity="1"
       d="m 129.91488,2423.8863 h 78.63 a 0.67,0.66 0.4 0 1 0.67,0.67 l -0.03,6.58 -0.25,0.71 q -0.15,0.43 -0.21,-0.01 -1.07,-7.25 -8.75,-6.45 -10.88,-0.03 -21.75,0.04 h -17 -24.25 q -4.62,-0.04 -6,3.96 -1.13,3.27 -0.75,7.75 0.01,0.14 0.07,84.5 0.01,7.74 7.74,7.94 2.72,0.07 3.44,0.02 30.75,1.28 61.5,-0.17 2.94,-0.32 4.46,-2.79 1.86,-4.02 1.28,-8.5 -0.32,-2.49 0.47,-4.75 l 0.04,16.95 a 0.56,0.55 0 0 1 -0.56,0.55 l -78.87,-0.06 a 0.51,0.49 0 0 1 -0.51,-0.49 l -0.06,-105.76 a 0.69,0.69 0 0 1 0.69,-0.69 z"
       id="path2" />
    <path
       fill="#f19b40"
       fill-opacity="1"
       d="m 136.97488,2425.4263 q -0.88,1.93 -0.25,3.96 -0.47,26.88 -0.16,53.75 0.24,20.13 -0.09,40.52 -0.04,2.17 2.12,2.17 32.51,0.06 65.82,0.12 1.48,0.46 3.02,0.69 -1.52,2.47 -4.46,2.79 l -61.5,0.17 q -0.72,0.05 -3.44,-0.02 -7.73,-0.2 -7.74,-7.94 -0.06,-84.36 -0.07,-84.5 -0.38,-4.48 0.75,-7.75 1.38,-4 6,-3.96 z"
       id="path4" />
    <path
       fill="#ffb155"
       fill-opacity="1"
       d="m 136.97488,2425.4263 h 24.25 l 0.25,22.98 q 0.02,1.6 1.29,0.58 l 6.32,-5.05 a 0.66,0.66 0 0 1 0.8,-0.01 l 5.76,4.42 q 2.08,1.59 2.08,-0.99 0,-10.24 0,-20.28 0,-0.45 0.16,-0.84 0.16,-0.41 0.34,-0.81 10.87,-0.07 21.75,-0.04 7.68,-0.8 8.75,6.45 0.06,0.44 0.21,0.01 l 0.25,-0.71 v 82.25 q -0.79,2.26 -0.47,4.75 0.58,4.48 -1.28,8.5 -1.54,-0.23 -3.02,-0.69 -33.31,-0.06 -65.82,-0.12 -2.16,0 -2.12,-2.17 0.33,-20.39 0.09,-40.52 -0.31,-26.87 0.16,-53.75 -0.63,-2.03 0.25,-3.96 z m 21.31,79.66 -0.06,-56.28 a 0.62,0.58 89.5 0 0 -0.59,-0.62 l -9.47,0.1 a 0.53,0.51 89.4 0 0 -0.5,0.53 l 0.06,63.55 a 0.76,0.75 89.6 0 0 0.76,0.76 l 46.8,-0.17 a 0.65,0.65 0 0 0 0.63,-0.5 q 0.55,-2.26 0.15,-4.58 -0.07,-0.43 0.06,-0.96 0.43,-1.79 -1.9,-1.28 -0.68,0.15 -35.44,-0.06 a 0.5,0.49 0 0 1 -0.5,-0.49 z"
       id="path6" />
    <path
       fill="#ef5d40"
       fill-opacity="1"
       d="m 161.22488,2425.4263 h 17 q -0.18,0.4 -0.34,0.81 -0.16,0.39 -0.16,0.84 0,10.04 0,20.28 0,2.58 -2.08,0.99 l -5.76,-4.42 a 0.66,0.66 0 0 0 -0.8,0.01 l -6.32,5.05 q -1.27,1.02 -1.29,-0.58 z"
       id="path8" />
    <rect
       fill="#000000"
       fill-opacity="1"
       x="311.41464"
       y="2448.002"
       width="7.7600002"
       height="9.7600002"
       rx="0.60000002"
       transform="rotate(-0.2)"
       id="rect10" />
    <path
       fill="#000000"
       fill-opacity="1"
       d="m 444.13488,2446.8863 6.28,0.05 a 0.5,0.51 0 0 1 0.5,0.51 l 0.06,22.54 q 0,2.23 1.25,0.39 2.59,-3.78 6.93,-5.33 5.7,-2.02 11.07,-0.64 5.18,1.34 8.9,5.62 3.93,4.52 5.16,11.05 1.34,7.04 0.18,13.56 -1.32,7.45 -5.28,12.14 -5.3,6.28 -14.33,5.98 -4.16,-0.15 -7.08,-1.61 -3.36,-1.68 -5.62,-4.96 -1.24,-1.8 -1.23,0.46 l 0.02,4.43 a 0.51,0.53 89.5 0 1 -0.53,0.52 l -6.5,-0.01 a 0.69,0.72 0 0 1 -0.69,-0.72 v -63.05 a 0.9,0.93 0.3 0 1 0.91,-0.93 z m 13.03,57.31 q 3.91,3 8.61,2.2 4.09,-0.7 6.82,-3.69 2.61,-2.86 3.63,-7.32 2.2,-9.64 -1.37,-17.62 -1.91,-4.27 -5.1,-6.12 -3.88,-2.25 -8.53,-1.01 -5.96,1.59 -8.19,7.06 -1.75,4.29 -1.95,9.09 -0.23,5.34 0.71,9.15 1.28,5.13 5.37,8.26 z"
       id="path12" />
    <path
       fill="#ffffff"
       fill-opacity="1"
       d="m 157.63488,2448.1863 a 0.62,0.58 89.5 0 1 0.59,0.62 l 0.06,56.28 a 0.5,0.49 0 0 0 0.5,0.49 q 34.76,0.21 35.44,0.06 2.33,-0.51 1.9,1.28 -0.13,0.53 -0.06,0.96 0.4,2.32 -0.15,4.58 a 0.65,0.65 0 0 1 -0.63,0.5 l -46.8,0.17 a 0.76,0.75 89.6 0 1 -0.76,-0.76 l -0.06,-63.55 a 0.53,0.51 89.4 0 1 0.5,-0.53 z"
       id="path14" />
    <path
       fill="#000000"
       fill-opacity="1"
       d="m 344.89488,2449.3863 h 6.73 a 0.85,0.85 0 0 1 0.85,0.85 v 53.65 a 0.68,0.69 0 0 0 0.68,0.69 l 28.9,0.06 a 0.67,0.66 0 0 1 0.67,0.66 v 5.56 a 0.78,0.78 0 0 1 -0.78,0.78 h -37.28 a 0.69,0.69 0 0 1 -0.69,-0.69 v -60.64 a 0.92,0.92 0 0 1 0.92,-0.92 z"
       id="path16" />
    <path
       fill="#000000"
       fill-opacity="1"
       d="m 249.37488,2467.1263 q 8.31,5.41 9,16.5 0.19,3 0.11,5.65 a 0.88,0.88 0 0 1 -0.88,0.86 h -33.45 a 0.8,0.8 0 0 0 -0.8,0.88 q 0.99,9.36 7.28,13.04 4.78,2.81 12.54,2.07 6.54,-0.61 12.57,-3.75 a 0.66,0.67 76.3 0 1 0.98,0.59 l -0.05,5.59 a 1.08,1.13 78.9 0 1 -0.71,1 q -8.33,3.25 -17.24,3.28 -8.8,0.02 -15.06,-4.89 -6.51,-5.1 -7.94,-13.56 -1.14,-6.76 0.22,-13.01 2.8,-12.87 14.97,-16.55 4.62,-1.4 9.6,-0.83 4.93,0.58 8.86,3.13 z m -4.2,5.36 q -2.03,-1.59 -4.59,-1.9 -14,-1.67 -17.12,12.43 a 0.87,0.87 0 0 0 0.85,1.06 l 25.72,0.06 a 0.69,0.69 0 0 0 0.69,-0.72 q -0.24,-6.77 -5.55,-10.93 z"
       id="path18" />
    <path
       fill="#000000"
       fill-opacity="1"
       d="m 411.47488,2464.0863 q 12.05,1.12 15.25,12.3 1.32,4.62 1.21,10.75 -0.21,12 -0.21,24 a 0.5,0.5 0 0 1 -0.5,0.5 l -6.44,-0.05 a 0.52,0.52 0 0 1 -0.52,-0.52 l 0.02,-5.13 q 0.01,-1.43 -0.82,-0.3 -4.46,6.07 -11.56,7.01 -6.23,0.83 -11.24,-1.1 -6.08,-2.35 -7.75,-9.6 -2.18,-9.41 3.63,-14.69 3.81,-3.48 11.72,-4.57 7,-0.96 14.75,-0.47 a 0.97,0.98 89.8 0 0 1.04,-1.04 q -0.34,-4.56 -2.64,-7.23 -1.44,-1.66 -4.34,-2.62 -2.13,-0.71 -4.91,-0.84 -8.2,-0.4 -15.51,3.31 a 0.58,0.61 76.3 0 1 -0.88,-0.51 l 0.08,-5.46 a 0.74,0.86 77 0 1 0.51,-0.7 q 9.13,-3.96 19.11,-3.04 z m -12.06,40.36 q 5.07,3.14 10.24,1.62 4.85,-1.43 7.59,-5.77 2.87,-4.52 2.69,-11.2 a 0.94,0.94 0 0 0 -0.92,-0.92 q -6.76,-0.19 -12.71,0.47 -4.9,0.55 -6.9,1.89 -3.33,2.23 -3.41,7.1 -0.07,4.66 3.42,6.81 z"
       id="path20" />
    <path
       fill="#000000"
       fill-opacity="1"
       d="m 266.28488,2464.8863 h 7.11 a 1.72,1.82 72.6 0 1 1.43,0.7 l 11.54,15.45 a 0.64,0.64 0 0 0 1.03,0 l 11.53,-15.5 a 0.89,1.13 21.7 0 1 0.79,-0.46 l 7.38,-0.15 q 1.31,-0.02 0.5,1.07 l -15.68,21.14 a 0.99,0.99 0 0 0 0,1.18 l 16.65,22.59 q 0.54,0.73 -0.37,0.73 h -7.5 a 1,1.03 72.4 0 1 -0.82,-0.41 l -12.73,-17.2 a 0.75,0.75 0 0 0 -1.2,0 l -12.6,17.02 a 0.89,1.14 22.3 0 1 -0.81,0.46 l -7.82,-0.06 q -0.54,0 -0.2,-0.46 l 17,-22.87 a 1.25,1.28 44.7 0 0 0.01,-1.5 l -15.58,-21.05 q -0.51,-0.68 0.34,-0.68 z"
       id="path22" />
    <rect
       fill="#000000"
       fill-opacity="1"
       x="319.98489"
       y="2464.9163"
       width="7.7399998"
       height="46.720001"
       rx="0.67000002"
       id="rect24" />
    <path
       fill="#f6e5d6"
       fill-opacity="1"
       d="m 202.97488,2529.4263 q -30.75,1.45 -61.5,0.17 z"
       id="path26" />
  </g>
</svg>
