<?xml version="1.0" encoding="UTF-8" standalone="no"?>
<svg
   version="1.1"
   viewBox="0 0 355.77823 107"
   id="svg28"
   sodipodi:docname="logo_2.svg"
   width="355.77823"
   height="107"
   inkscape:version="1.2.2 (1:1.2.2+202212051552+b0a8486541)"
   xmlns:inkscape="http://www.inkscape.org/namespaces/inkscape"
   xmlns:sodipodi="http://sodipodi.sourceforge.net/DTD/sodipodi-0.dtd"
   xmlns="http://www.w3.org/2000/svg"
   xmlns:svg="http://www.w3.org/2000/svg">
  <defs
     id="defs32" />
  <sodipodi:namedview
     id="namedview30"
     pagecolor="#505050"
     bordercolor="#ffffff"
     borderopacity="1"
     inkscape:showpageshadow="0"
     inkscape:pageopacity="0"
     inkscape:pagecheckerboard="1"
     inkscape:deskcolor="#505050"
     showgrid="false"
     inkscape:zoom="5.6568543"
     inkscape:cx="-6.5407377"
     inkscape:cy="66.998367"
     inkscape:window-width="1920"
     inkscape:window-height="1015"
     inkscape:window-x="0"
     inkscape:window-y="0"
     inkscape:window-maximized="1"
     inkscape:current-layer="svg28" />
  <path
     fill="#ffffff"
     fill-opacity="1"
     d="m 0.69,0 h 78.63 a 0.67,0.66 0.4 0 1 0.67,0.67 L 79.96,7.25 79.71,7.96 Q 79.56,8.39 79.5,7.95 78.43,0.7 70.75,1.5 59.87,1.47 49,1.54 H 32 7.75 Q 3.13,1.5 1.75,5.5 0.62,8.77 1,13.25 q 0.01,0.14 0.07,84.5 0.01,7.74 7.74,7.94 2.72,0.07 3.44,0.02 30.75,1.28 61.5,-0.17 2.94,-0.32 4.46,-2.79 1.86,-4.02 1.28,-8.5 -0.32,-2.49 0.47,-4.75 L 80,106.45 A 0.56,0.55 0 0 1 79.44,107 L 0.57,106.94 A 0.51,0.49 0 0 1 0.06,106.45 L 0,0.69 A 0.69,0.69 0 0 1 0.69,0 Z"
     id="path2"
     style="display:none" />
  <path
     fill="#f19b40"
     fill-opacity="1"
     d="M 7.75,1.54 C 7.1633333,2.8266667 7.08,4.1466667 7.5,5.5 7.1866667,23.42 7.1333333,41.336667 7.34,59.25 7.5,72.67 7.47,86.176667 7.25,99.77 c -0.026667,1.44667 0.68,2.17 2.12,2.17 21.673333,0.04 43.613333,0.08 65.82,0.12 1.100747,0 2.603646,-0.0769 3.529614,-0.0769 C 78.229766,103.81121 75.71,105.32667 73.75,105.54 l -61.5,0.17 c -0.48,0.0333 -1.626667,0.0267 -3.44,-0.02 C 3.6566667,105.55667 1.0766667,102.91 1.07,97.75 1.03,41.51 1.0066667,13.343333 1,13.25 0.74666667,10.263333 0.99666667,7.68 1.75,5.5 2.67,2.8333333 4.67,1.5133333 7.75,1.54 Z"
     id="path4"
     sodipodi:nodetypes="cccccccccccccc"
     style="display:none" />
  <path
     fill="#ffb155"
     fill-opacity="1"
     d="M 7.5189732,1.54 H 32 l 0.25,22.98 c 0.01333,1.066667 0.443333,1.26 1.29,0.58 l 6.32,-5.05 c 0.234024,-0.183003 0.561474,-0.187096 0.8,-0.01 l 5.76,4.42 c 1.386667,1.06 2.08,0.73 2.08,-0.99 V 3.19 C 48.5,2.5579301 48.5068,2.0904471 48.5068,1.5282355 55.753442,1.4815688 63.496667,1.48 70.75,1.5 c 7.94462,0.3884209 9.21,4.191427 9.21,7.1467896 V 89.5 c 0,4.695626 -9.84e-4,9.364336 -1.75,13.25 -0.966808,0 -1.935706,-0.69 -3.02,-0.69 -22.206667,-0.04 -44.146667,-0.08 -65.82,-0.12 -1.44,0 -2.1466667,-0.72333 -2.12,-2.17 C 7.47,86.176667 7.5,72.67 7.34,59.25 7.1333333,41.336667 7.1866667,23.42 7.5,5.5 7.08,4.1466667 6.9323065,2.8266667 7.5189732,1.54 Z M 29.06,81.2 29,24.92 c -3.34e-4,-0.346345 -0.266044,-0.625566 -0.59,-0.62 l -9.47,0.1 c -0.27791,0.0054 -0.500274,0.241138 -0.5,0.53 l 0.06,63.55 c 4.1e-5,0.42367 0.341941,0.76557 0.76,0.76 l 46.8,-0.17 c 0.300284,-0.0011 -0.322143,-0.229959 0.06484,-0.5 0.366667,-1.506667 -0.149614,-2.795142 -0.416281,-4.341809 -0.04667,-0.286667 -5.891245,4.26915 -5.804575,3.915817 C 60.190652,86.950675 66.553333,81.41 65,81.75 c -0.453333,0.1 -12.266667,0.08 -35.44,-0.06 -0.276142,0 -0.5,-0.21938 -0.5,-0.49 z"
     id="path6"
     sodipodi:nodetypes="cccccccscccccccccccccccccccccccccc" />
  <path
     fill="#ef5d40"
     fill-opacity="1"
     d="M 32,1.54 48.503983,1.5143958 C 48.503983,2.0790961 48.5,2.6212845 48.5,3.19 v 20.28 c 0,1.72 -0.693333,2.05 -2.08,0.99 l -5.76,-4.42 c -0.238526,-0.177096 -0.565976,-0.173003 -0.8,0.01 l -6.32,5.05 c -0.846667,0.68 -1.276667,0.486667 -1.29,-0.58 z"
     id="path8"
     sodipodi:nodetypes="cccscccccc" />
  <rect
     fill="#000000"
     fill-opacity="1"
     x="190.6515"
     y="23.679249"
     width="7.7600002"
     height="9.7600002"
     rx="0.60000002"
     transform="rotate(-0.2)"
     id="rect10" />
  <path
     fill="#000000"
     fill-opacity="1"
     d="m 314.91,23 6.28,0.05 a 0.5,0.51 0 0 1 0.5,0.51 l 0.06,22.54 q 0,2.23 1.25,0.39 2.59,-3.78 6.93,-5.33 5.7,-2.02 11.07,-0.64 5.18,1.34 8.9,5.62 3.93,4.52 5.16,11.05 1.34,7.04 0.18,13.56 -1.32,7.45 -5.28,12.14 -5.3,6.28 -14.33,5.98 -4.16,-0.15 -7.08,-1.61 -3.36,-1.68 -5.62,-4.96 -1.24,-1.8 -1.23,0.46 l 0.02,4.43 a 0.51,0.53 89.5 0 1 -0.53,0.52 l -6.5,-0.01 A 0.69,0.72 0 0 1 314,86.98 V 23.93 A 0.9,0.93 0.3 0 1 314.91,23 Z m 13.03,57.31 q 3.91,3 8.61,2.2 4.09,-0.7 6.82,-3.69 2.61,-2.86 3.63,-7.32 2.2,-9.64 -1.37,-17.62 -1.91,-4.27 -5.1,-6.12 -3.88,-2.25 -8.53,-1.01 -5.96,1.59 -8.19,7.06 -1.75,4.29 -1.95,9.09 -0.23,5.34 0.71,9.15 1.28,5.13 5.37,8.26 z"
     id="path12" />
  <path
     fill="#ffffff"
     fill-opacity="1"
     d="m 28.41,24.3 c 0.323956,-0.0056 0.589666,0.273655 0.59,0.62 l 0.06,56.28 c 0,0.27062 0.223858,0.49 0.5,0.49 23.173333,0.14 34.986667,0.16 35.44,0.06 1.586365,0 1.69,0.06861 1.69,1.28 v 5.54 c -0.06929,0.292181 -0.329716,0.498865 -0.63,0.5 l -46.8,0.17 C 18.841941,89.2456 18.500041,88.90367 18.5,88.48 L 18.44,24.93 c -2.74e-4,-0.288862 0.22209,-0.524568 0.5,-0.53 z"
     id="path14"
     sodipodi:nodetypes="ccccccccccccc" />
  <path
     fill="#000000"
     fill-opacity="1"
     d="m 215.67,25.5 h 6.73 a 0.85,0.85 0 0 1 0.85,0.85 V 80 a 0.68,0.69 0 0 0 0.68,0.69 l 28.9,0.06 a 0.67,0.66 0 0 1 0.67,0.66 v 5.56 a 0.78,0.78 0 0 1 -0.78,0.78 h -37.28 a 0.69,0.69 0 0 1 -0.69,-0.69 V 26.42 a 0.92,0.92 0 0 1 0.92,-0.92 z"
     id="path16" />
  <path
     fill="#000000"
     fill-opacity="1"
     d="m 120.15,43.24 q 8.31,5.41 9,16.5 0.19,3 0.11,5.65 a 0.88,0.88 0 0 1 -0.88,0.86 H 94.93 a 0.8,0.8 0 0 0 -0.8,0.88 q 0.99,9.36 7.28,13.04 4.78,2.81 12.54,2.07 6.54,-0.61 12.57,-3.75 a 0.66,0.67 76.3 0 1 0.98,0.59 l -0.05,5.59 a 1.08,1.13 78.9 0 1 -0.71,1 q -8.33,3.25 -17.24,3.28 -8.8,0.02 -15.06,-4.89 -6.51,-5.1 -7.94,-13.56 -1.14,-6.76 0.22,-13.01 2.8,-12.87 14.97,-16.55 4.62,-1.4 9.6,-0.83 4.93,0.58 8.86,3.13 z m -4.2,5.36 q -2.03,-1.59 -4.59,-1.9 -14,-1.67 -17.12,12.43 a 0.87,0.87 0 0 0 0.85,1.06 l 25.72,0.06 a 0.69,0.69 0 0 0 0.69,-0.72 q -0.24,-6.77 -5.55,-10.93 z"
     id="path18" />
  <path
     fill="#000000"
     fill-opacity="1"
     d="m 282.25,40.2 q 12.05,1.12 15.25,12.3 1.32,4.62 1.21,10.75 -0.21,12 -0.21,24 a 0.5,0.5 0 0 1 -0.5,0.5 l -6.44,-0.05 a 0.52,0.52 0 0 1 -0.52,-0.52 l 0.02,-5.13 q 0.01,-1.43 -0.82,-0.3 -4.46,6.07 -11.56,7.01 -6.23,0.83 -11.24,-1.1 -6.08,-2.35 -7.75,-9.6 -2.18,-9.41 3.63,-14.69 3.81,-3.48 11.72,-4.57 7,-0.96 14.75,-0.47 a 0.97,0.98 89.8 0 0 1.04,-1.04 q -0.34,-4.56 -2.64,-7.23 -1.44,-1.66 -4.34,-2.62 -2.13,-0.71 -4.91,-0.84 -8.2,-0.4 -15.51,3.31 a 0.58,0.61 76.3 0 1 -0.88,-0.51 l 0.08,-5.46 a 0.74,0.86 77 0 1 0.51,-0.7 q 9.13,-3.96 19.11,-3.04 z m -12.06,40.36 q 5.07,3.14 10.24,1.62 4.85,-1.43 7.59,-5.77 2.87,-4.52 2.69,-11.2 a 0.94,0.94 0 0 0 -0.92,-0.92 q -6.76,-0.19 -12.71,0.47 -4.9,0.55 -6.9,1.89 -3.33,2.23 -3.41,7.1 -0.07,4.66 3.42,6.81 z"
     id="path20" />
  <path
     fill="#000000"
     fill-opacity="1"
     d="m 137.06,41 h 7.11 a 1.72,1.82 72.6 0 1 1.43,0.7 l 11.54,15.45 a 0.64,0.64 0 0 0 1.03,0 l 11.53,-15.5 a 0.89,1.13 21.7 0 1 0.79,-0.46 l 7.38,-0.15 q 1.31,-0.02 0.5,1.07 l -15.68,21.14 a 0.99,0.99 0 0 0 0,1.18 l 16.65,22.59 q 0.54,0.73 -0.37,0.73 h -7.5 a 1,1.03 72.4 0 1 -0.82,-0.41 l -12.73,-17.2 a 0.75,0.75 0 0 0 -1.2,0 l -12.6,17.02 a 0.89,1.14 22.3 0 1 -0.81,0.46 l -7.82,-0.06 q -0.54,0 -0.2,-0.46 l 17,-22.87 a 1.25,1.28 44.7 0 0 0.01,-1.5 L 136.72,41.68 Q 136.21,41 137.06,41 Z"
     id="path22" />
  <rect
     fill="#000000"
     fill-opacity="1"
     x="190.75999"
     y="41.029972"
     width="7.7399998"
     height="46.720001"
     rx="0.67000002"
     id="rect24" />
  <path
     fill="#f6e5d6"
     fill-opacity="1"
     d="M 73.75,105.54 Q 43,106.99 12.25,105.71 Z"
     id="path26"
     style="display:none" />
  <path
     fill="#f19b40"
     fill-opacity="1"
     d="M 7.5061552,1.54 C 7.5061552,2.770714 7.5,3.9525596 7.5,5.4 7.1866667,23.32 7.1333333,41.336667 7.34,59.25 7.5,72.67 7.47,86.176667 7.25,99.77 c -0.026667,1.44667 0.68,2.17 2.12,2.17 24.705946,0.0647 47.636162,0.0545 69.187985,-0.008 C 78.068137,103.76029 75.71,105.32667 73.75,105.54 l -61.5,0.17 c -0.48,0.0333 -1.626667,0.0267 -3.44,-0.02 C 3.6566667,105.55667 1.0766667,102.91 1.07,97.75 1.03,41.51 1.0066667,13.343333 1,13.25 1,10.198764 0.99666667,7.68 1.75,5.5 2.67,2.8333333 4.4261552,1.5133333 7.5061552,1.54 Z"
     id="path1942"
     sodipodi:nodetypes="ccccccccccccc" />
</svg>
